<?xml version="1.0" ?><!DOCTYPE svg  PUBLIC '-//W3C//DTD SVG 1.1//EN'  'http://www.w3.org/Graphics/SVG/1.1/DTD/svg11.dtd'><svg enable-background="new 0 0 128 128" id="Layer_1" version="1.1" viewBox="0 0 128 128" xml:space="preserve" xmlns="http://www.w3.org/2000/svg" xmlns:xlink="http://www.w3.org/1999/xlink"><circle cx="64" cy="64" fill="#4B5F83" id="circle" r="64"/><g id="icon"><path d="M99,84.5H29c-2.2,0-4-1.8-4-4v-33c0-2.2,1.8-4,4-4h70c2.2,0,4,1.8,4,4v33   C103,82.7,101.2,84.5,99,84.5z" fill="#B3B3B3" id="base"/><g id="_x30_5"><path d="M33,80.5h-2c-1.1,0-2-0.9-2-2v-1c0-1.1,0.9-2,2-2h2c1.1,0,2,0.9,2,2v1    C35,79.6,34.1,80.5,33,80.5z" fill="#FFFFFF" id="button_44_"/><path d="M41,80.5h-2c-1.1,0-2-0.9-2-2v-1c0-1.1,0.9-2,2-2h2c1.1,0,2,0.9,2,2v1    C43,79.6,42.1,80.5,41,80.5z" fill="#FFFFFF" id="button_43_"/><path d="M89,80.5h-2c-1.1,0-2-0.9-2-2v-1c0-1.1,0.9-2,2-2h2c1.1,0,2,0.9,2,2v1    C91,79.6,90.1,80.5,89,80.5z" fill="#FFFFFF" id="button_37_"/><path d="M97,80.5h-2c-1.1,0-2-0.9-2-2v-1c0-1.1,0.9-2,2-2h2c1.1,0,2,0.9,2,2v1    C99,79.6,98.1,80.5,97,80.5z" fill="#FFFFFF" id="button_36_"/><path d="M81,80.5H47c-1.1,0-2-0.9-2-2v-1c0-1.1,0.9-2,2-2h34c1.1,0,2,0.9,2,2v1    C83,79.6,82.1,80.5,81,80.5z" fill="#FFFFFF" id="button_38_"/></g><g id="_x30_4"><path d="M49,73.5h-2c-1.1,0-2-0.9-2-2v-1c0-1.1,0.9-2,2-2h2c1.1,0,2,0.9,2,2v1    C51,72.6,50.1,73.5,49,73.5z" fill="#FFFFFF" id="button_33_"/><path d="M57,73.5h-2c-1.1,0-2-0.9-2-2v-1c0-1.1,0.9-2,2-2h2c1.1,0,2,0.9,2,2v1    C59,72.6,58.1,73.5,57,73.5z" fill="#FFFFFF" id="button_32_"/><path d="M65,73.5h-2c-1.1,0-2-0.9-2-2v-1c0-1.1,0.9-2,2-2h2c1.1,0,2,0.9,2,2v1    C67,72.6,66.1,73.5,65,73.5z" fill="#FFFFFF" id="button_31_"/><path d="M73,73.5h-2c-1.1,0-2-0.9-2-2v-1c0-1.1,0.9-2,2-2h2c1.1,0,2,0.9,2,2v1    C75,72.6,74.1,73.5,73,73.5z" fill="#FFFFFF" id="button_30_"/><path d="M81,73.5h-2c-1.1,0-2-0.9-2-2v-1c0-1.1,0.9-2,2-2h2c1.1,0,2,0.9,2,2v1    C83,72.6,82.1,73.5,81,73.5z" fill="#FFFFFF" id="button_29_"/><path d="M97,73.5H87c-1.1,0-2-0.9-2-2v-1c0-1.1,0.9-2,2-2h10c1.1,0,2,0.9,2,2v1    C99,72.6,98.1,73.5,97,73.5z" fill="#FFFFFF" id="button_28_"/><path d="M41,73.5H31c-1.1,0-2-0.9-2-2v-1c0-1.1,0.9-2,2-2h10c1.1,0,2,0.9,2,2v1    C43,72.6,42.1,73.5,41,73.5z" fill="#FFFFFF" id="button_27_"/></g><g id="_x30_3"><path d="M33,66.5h-2c-1.1,0-2-0.9-2-2v-1c0-1.1,0.9-2,2-2h2c1.1,0,2,0.9,2,2v1    C35,65.6,34.1,66.5,33,66.5z" fill="#FFFFFF" id="button_26_"/><path d="M41,66.5h-2c-1.1,0-2-0.9-2-2v-1c0-1.1,0.9-2,2-2h2c1.1,0,2,0.9,2,2v1    C43,65.6,42.1,66.5,41,66.5z" fill="#FFFFFF" id="button_25_"/><path d="M49,66.5h-2c-1.1,0-2-0.9-2-2v-1c0-1.1,0.9-2,2-2h2c1.1,0,2,0.9,2,2v1    C51,65.6,50.1,66.5,49,66.5z" fill="#FFFFFF" id="button_24_"/><path d="M57,66.5h-2c-1.1,0-2-0.9-2-2v-1c0-1.1,0.9-2,2-2h2c1.1,0,2,0.9,2,2v1    C59,65.6,58.1,66.5,57,66.5z" fill="#FFFFFF" id="button_23_"/><path d="M65,66.5h-2c-1.1,0-2-0.9-2-2v-1c0-1.1,0.9-2,2-2h2c1.1,0,2,0.9,2,2v1    C67,65.6,66.1,66.5,65,66.5z" fill="#FFFFFF" id="button_22_"/><path d="M73,66.5h-2c-1.1,0-2-0.9-2-2v-1c0-1.1,0.9-2,2-2h2c1.1,0,2,0.9,2,2v1    C75,65.6,74.1,66.5,73,66.5z" fill="#FFFFFF" id="button_21_"/><path d="M81,66.5h-2c-1.1,0-2-0.9-2-2v-1c0-1.1,0.9-2,2-2h2c1.1,0,2,0.9,2,2v1    C83,65.6,82.1,66.5,81,66.5z" fill="#FFFFFF" id="button_20_"/><path d="M89,66.5h-2c-1.1,0-2-0.9-2-2v-1c0-1.1,0.9-2,2-2h2c1.1,0,2,0.9,2,2v1    C91,65.6,90.1,66.5,89,66.5z" fill="#FFFFFF" id="button_19_"/><path d="M97,66.5h-2c-1.1,0-2-0.9-2-2v-1c0-1.1,0.9-2,2-2h2c1.1,0,2,0.9,2,2v1    C99,65.6,98.1,66.5,97,66.5z" fill="#FFFFFF" id="button_18_"/></g><g id="_x30_2"><path d="M33,59.5h-2c-1.1,0-2-0.9-2-2v-1c0-1.1,0.9-2,2-2h2c1.1,0,2,0.9,2,2v1    C35,58.6,34.1,59.5,33,59.5z" fill="#FFFFFF" id="button_17_"/><path d="M41,59.5h-2c-1.1,0-2-0.9-2-2v-1c0-1.1,0.9-2,2-2h2c1.1,0,2,0.9,2,2v1    C43,58.6,42.1,59.5,41,59.5z" fill="#FFFFFF" id="button_16_"/><path d="M49,59.5h-2c-1.1,0-2-0.9-2-2v-1c0-1.1,0.9-2,2-2h2c1.1,0,2,0.9,2,2v1    C51,58.6,50.1,59.5,49,59.5z" fill="#FFFFFF" id="button_15_"/><path d="M57,59.5h-2c-1.1,0-2-0.9-2-2v-1c0-1.1,0.9-2,2-2h2c1.1,0,2,0.9,2,2v1    C59,58.6,58.1,59.5,57,59.5z" fill="#FFFFFF" id="button_14_"/><path d="M65,59.5h-2c-1.1,0-2-0.9-2-2v-1c0-1.1,0.9-2,2-2h2c1.1,0,2,0.9,2,2v1    C67,58.6,66.1,59.5,65,59.5z" fill="#FFFFFF" id="button_13_"/><path d="M73,59.5h-2c-1.1,0-2-0.9-2-2v-1c0-1.1,0.9-2,2-2h2c1.1,0,2,0.9,2,2v1    C75,58.6,74.1,59.5,73,59.5z" fill="#FFFFFF" id="button_12_"/><path d="M81,59.5h-2c-1.1,0-2-0.9-2-2v-1c0-1.1,0.9-2,2-2h2c1.1,0,2,0.9,2,2v1    C83,58.6,82.1,59.5,81,59.5z" fill="#FFFFFF" id="button_11_"/><path d="M89,59.5h-2c-1.1,0-2-0.9-2-2v-1c0-1.1,0.9-2,2-2h2c1.1,0,2,0.9,2,2v1    C91,58.6,90.1,59.5,89,59.5z" fill="#FFFFFF" id="button_10_"/><path d="M97,59.5h-2c-1.1,0-2-0.9-2-2v-1c0-1.1,0.9-2,2-2h2c1.1,0,2,0.9,2,2v1    C99,58.6,98.1,59.5,97,59.5z" fill="#FFFFFF" id="button_9_"/></g><g id="_x30_1"><path d="M33,52.5h-2c-1.1,0-2-0.9-2-2v-1c0-1.1,0.9-2,2-2h2c1.1,0,2,0.9,2,2v1    C35,51.6,34.1,52.5,33,52.5z" fill="#FFFFFF" id="button_8_"/><path d="M41,52.5h-2c-1.1,0-2-0.9-2-2v-1c0-1.1,0.9-2,2-2h2c1.1,0,2,0.9,2,2v1    C43,51.6,42.1,52.5,41,52.5z" fill="#FFFFFF" id="button_7_"/><path d="M49,52.5h-2c-1.1,0-2-0.9-2-2v-1c0-1.1,0.9-2,2-2h2c1.1,0,2,0.9,2,2v1    C51,51.6,50.1,52.5,49,52.5z" fill="#FFFFFF" id="button_6_"/><path d="M57,52.5h-2c-1.1,0-2-0.9-2-2v-1c0-1.1,0.9-2,2-2h2c1.1,0,2,0.9,2,2v1    C59,51.6,58.1,52.5,57,52.5z" fill="#FFFFFF" id="button_5_"/><path d="M65,52.5h-2c-1.1,0-2-0.9-2-2v-1c0-1.1,0.9-2,2-2h2c1.1,0,2,0.9,2,2v1    C67,51.6,66.1,52.5,65,52.5z" fill="#FFFFFF" id="button_4_"/><path d="M73,52.5h-2c-1.1,0-2-0.9-2-2v-1c0-1.1,0.9-2,2-2h2c1.1,0,2,0.9,2,2v1    C75,51.6,74.1,52.5,73,52.5z" fill="#FFFFFF" id="button_3_"/><path d="M81,52.5h-2c-1.1,0-2-0.9-2-2v-1c0-1.1,0.9-2,2-2h2c1.1,0,2,0.9,2,2v1    C83,51.6,82.1,52.5,81,52.5z" fill="#FFFFFF" id="button_2_"/><path d="M97,52.5H87c-1.1,0-2-0.9-2-2v-1c0-1.1,0.9-2,2-2h10c1.1,0,2,0.9,2,2v1    C99,51.6,98.1,52.5,97,52.5z" fill="#FFFFFF" id="button_34_"/></g></g></svg>